<svg width="10" height="10" viewBox="0 0 10 10" fill="none" xmlns="http://www.w3.org/2000/svg">
<path d="M3.7841 10C4.03366 10 4.23099 9.88882 4.37028 9.67232L9.8549 0.965477C9.95937 0.795787 10 0.667057 10 0.532475C10 0.21065 9.79106 0 9.47185 0C9.2397 0 9.11201 0.0760679 8.97272 0.29842L3.76088 8.67174L1.0563 5.1024C0.911201 4.8976 0.766106 4.81568 0.557168 4.81568C0.226349 4.81568 0 5.04389 0 5.36571C0 5.50029 0.0580383 5.65243 0.168311 5.79286L3.1805 9.66062C3.35461 9.88882 3.53453 10 3.7841 10Z" fill="#248A3D"/>
</svg>
